# xmcd CD database file
#
# Track frame offsets:
#	150
#	14186
#	26292
#	39105
#	53276
#	65816
#	78448
#	92756
#	106673
#	118118
#	126031
#	140068
#	149572
#	163392
#	172729
#	187621
#	196993
#	207576
#	221956
#	229868
#
# Disc length: 3213 seconds
#
# Revision: 0
# Processed by: cddbd v1.5.2PL0 Copyright (c) Steve Scherf et al.
# Submitted via: CDex 1.70beta2
#
DISCID=1d0c8b14
DTITLE=Doris Day - A GUY IS A GUY
DYEAR=2002
DGENRE=Jazz
TTITLE0=Made Up My Mind
TTITLE1=A Guy Is A Guy
TTITLE2=A Hundred Years From Today
TTITLE3=A Red Kiss On A Blue Letter
TTITLE4=Again
TTITLE5=At The Cafe' Rendevouz
TTITLE6=Be Anything But Be Mine
TTITLE7=Between Friends
TTITLE8=Blame My Absent Minded Heart
TTITLE9=Blue Skies
TTITLE10=Broom Street
TTITLE11=Canadian Capers
TTITLE12=Come To Baby
TTITLE13=Crying My Heart Out For You
TTITLE14=Dig It
TTITLE15=Don't Worry Bout Me
TTITLE16=Everywhere You Go
TTITLE17=He's Home For A Little While
TTITLE18=I Can't Give You Anything But Love
TTITLE19=I'll Never Slip Around Again
EXTD=YEAR: 2002
EXTT0=
EXTT1=
EXTT2=
EXTT3=
EXTT4=
EXTT5=
EXTT6=
EXTT7=
EXTT8=
EXTT9=
EXTT10=
EXTT11=
EXTT12=
EXTT13=
EXTT14=
EXTT15=
EXTT16=
EXTT17=
EXTT18=
EXTT19=
PLAYORDER=
